<svg width="40" height="40" viewBox="0 0 40 40" fill="none" xmlns="http://www.w3.org/2000/svg">
<path d="M29.1668 10.8335H29.1835M11.6668 3.3335H28.3335C32.9359 3.3335 36.6668 7.06446 36.6668 11.6668V28.3335C36.6668 32.9359 32.9359 36.6668 28.3335 36.6668H11.6668C7.06446 36.6668 3.3335 32.9359 3.3335 28.3335V11.6668C3.3335 7.06446 7.06446 3.3335 11.6668 3.3335ZM26.6668 18.9502C26.8725 20.3372 26.6356 21.7539 25.9898 22.9985C25.3439 24.2432 24.3221 25.2525 23.0695 25.883C21.817 26.5134 20.3976 26.7328 19.0131 26.51C17.6287 26.2873 16.3498 25.6336 15.3582 24.6421C14.3667 23.6506 13.713 22.3716 13.4903 20.9872C13.2675 19.6028 13.4869 18.1833 14.1174 16.9308C14.7478 15.6783 15.7571 14.6564 17.0018 14.0106C18.2465 13.3647 19.6631 13.1278 21.0502 13.3335C22.465 13.5433 23.7749 14.2026 24.7863 15.214C25.7977 16.2254 26.457 17.5353 26.6668 18.9502Z" stroke="white" stroke-width="3.5" stroke-linecap="round" stroke-linejoin="round"/>
</svg>
