<svg width="421" height="53" viewBox="0 0 421 53" fill="none" xmlns="http://www.w3.org/2000/svg">
<path d="M342.24 22.64C342.11 22.64 341.97 22.54 341.95 22.41C341.76 20.19 340.12 18.48 338.06 18.33C337.93 18.33 337.83 18.22 337.83 18.09C337.83 17.96 337.92 17.81 338.05 17.8C340.11 17.6 341.7 15.84 341.83 13.61C341.83 13.48 341.94 13.38 342.07 13.37C342.2 13.37 342.34 13.47 342.35 13.6C342.54 15.82 344.18 17.53 346.25 17.68C346.38 17.68 346.48 17.8 346.48 17.93C346.48 18.06 346.38 18.2 346.25 18.22C344.19 18.42 342.6 20.18 342.47 22.41C342.47 22.54 342.36 22.64 342.23 22.65L342.24 22.64Z" fill="white"/>
<path d="M342.11 13.62C342.31 15.95 344.07 17.78 346.24 17.93V17.97C344.07 18.18 342.37 20.06 342.24 22.39H342.2C342 20.07 340.24 18.24 338.07 18.08V18.04C340.24 17.83 341.94 15.95 342.07 13.62H342.11ZM342.11 13.12H342.07C341.81 13.12 341.59 13.33 341.58 13.59C341.46 15.69 339.96 17.35 338.03 17.54C337.77 17.57 337.58 17.78 337.58 18.04C337.58 18.3 337.79 18.55 338.05 18.57C339.99 18.71 341.53 20.33 341.71 22.42C341.73 22.68 341.95 22.88 342.21 22.88C342.47 22.88 342.72 22.67 342.74 22.41C342.86 20.31 344.36 18.65 346.29 18.46C346.55 18.43 346.74 18.22 346.74 17.96C346.74 17.7 346.53 17.45 346.27 17.43C344.33 17.29 342.79 15.67 342.61 13.58C342.59 13.32 342.37 13.12 342.11 13.12Z" fill="white"/>
<path d="M338.99 21.29C338.92 21.29 338.86 21.26 338.81 21.21L338.79 21.18C338.7 21.09 338.7 20.94 338.79 20.84C340.29 19.19 340.44 16.83 339.15 15.21C339.07 15.11 339.08 14.96 339.18 14.87C339.23 14.82 339.32 14.79 339.39 14.79C339.45 14.79 339.5 14.81 339.54 14.84C340.27 15.49 341.23 15.85 342.25 15.85C343.27 15.85 344.34 15.47 345.18 14.78C345.23 14.74 345.28 14.72 345.34 14.72C345.41 14.72 345.47 14.75 345.52 14.8C345.61 14.9 345.63 15.07 345.55 15.16C344.05 16.81 343.9 19.17 345.19 20.79C345.27 20.89 345.26 21.04 345.16 21.13C345.11 21.18 345.02 21.21 344.95 21.21C344.89 21.21 344.84 21.19 344.8 21.16C344.07 20.51 343.11 20.15 342.09 20.15C341.07 20.15 340 20.53 339.16 21.22C339.11 21.26 339.06 21.28 339 21.28L338.99 21.29Z" fill="white"/>
<path d="M345.33 14.98L345.35 15.01C343.78 16.74 343.62 19.26 344.98 20.96L344.95 20.99C344.15 20.28 343.13 19.92 342.08 19.92C341.03 19.92 339.9 20.3 338.99 21.04L338.97 21.01C340.54 19.28 340.7 16.76 339.34 15.06L339.37 15.03C340.17 15.74 341.2 16.1 342.24 16.1C343.28 16.1 344.42 15.72 345.33 14.98ZM345.31 14.49C345.2 14.49 345.1 14.52 345.01 14.59C344.21 15.24 343.23 15.6 342.23 15.6C341.23 15.6 340.37 15.26 339.69 14.66C339.6 14.58 339.48 14.53 339.36 14.53C339.24 14.53 339.11 14.58 339.02 14.67C338.83 14.85 338.78 15.17 338.95 15.37C340.16 16.89 340.02 19.12 338.6 20.67C338.42 20.86 338.43 21.16 338.6 21.35C338.7 21.46 338.86 21.52 339 21.52C339.11 21.52 339.21 21.49 339.3 21.42C340.1 20.77 341.08 20.41 342.08 20.41C343.08 20.41 343.94 20.75 344.62 21.35C344.71 21.43 344.83 21.48 344.95 21.48C345.07 21.48 345.2 21.43 345.29 21.34C345.48 21.16 345.53 20.84 345.36 20.64C344.15 19.12 344.29 16.89 345.71 15.34C345.89 15.15 345.88 14.85 345.71 14.66C345.61 14.55 345.45 14.49 345.31 14.49Z" fill="white"/>
<path d="M75.34 30.75C75.21 30.75 75.1 30.65 75.09 30.52C74.85 27.25 72.4699 24.7 69.4399 24.44C69.3099 24.43 69.21 24.32 69.21 24.19C69.21 24.06 69.3099 23.9 69.4399 23.89C72.4799 23.63 74.85 21.08 75.09 17.81C75.09 17.68 75.21 17.58 75.34 17.58C75.47 17.58 75.63 17.68 75.64 17.81C75.88 21.08 78.2599 23.63 81.2899 23.89C81.4199 23.9 81.52 24.01 81.52 24.14C81.52 24.27 81.4199 24.43 81.2899 24.44C78.2499 24.7 75.88 27.25 75.64 30.52C75.64 30.65 75.52 30.75 75.39 30.75H75.34Z" fill="white"/>
<path d="M75.39 17.82C75.64 21.19 78.13 23.87 81.27 24.13V24.19C78.14 24.45 75.64 27.14 75.39 30.5H75.34C75.09 27.13 72.6 24.45 69.46 24.19V24.13C72.59 23.87 75.09 21.18 75.34 17.82H75.39ZM75.39 17.32H75.34C75.08 17.32 74.86 17.52 74.84 17.78C74.61 20.92 72.3299 23.38 69.4199 23.63C69.1599 23.65 68.96 23.87 68.96 24.13V24.19C68.96 24.45 69.1599 24.67 69.4199 24.69C72.3299 24.94 74.61 27.4 74.84 30.54C74.86 30.8 75.08 31 75.34 31H75.39C75.65 31 75.87 30.8 75.89 30.54C76.12 27.4 78.3999 24.94 81.3099 24.69C81.5699 24.67 81.77 24.45 81.77 24.19V24.13C81.77 23.87 81.5699 23.65 81.3099 23.63C78.3999 23.38 76.12 20.92 75.89 17.78C75.87 17.52 75.65 17.32 75.39 17.32Z" fill="white"/>
<path d="M79.3301 28.75C79.2701 28.75 79.2201 28.74 79.1801 28.7C78.1001 27.71 76.6501 27.16 75.1201 27.16C73.5901 27.16 72.1001 27.7 70.8801 28.67C70.8301 28.71 70.7801 28.72 70.7201 28.72C70.6501 28.72 70.5802 28.69 70.5302 28.64C70.4402 28.54 70.4101 28.36 70.5001 28.26C72.7401 25.87 73.0101 22.39 71.1401 19.98C71.0601 19.88 71.0701 19.73 71.1701 19.64C71.2301 19.59 71.3202 19.55 71.4002 19.55C71.4602 19.55 71.5101 19.56 71.5501 19.6C72.6301 20.59 74.0801 21.14 75.6101 21.14C77.1401 21.14 78.6301 20.6 79.8501 19.63C79.9001 19.59 79.9501 19.58 80.0101 19.58C80.0801 19.58 80.1501 19.61 80.2001 19.66C80.2901 19.76 80.3201 19.94 80.2301 20.04C77.9901 22.43 77.7202 25.91 79.5902 28.32C79.6702 28.42 79.6601 28.57 79.5601 28.66C79.5001 28.71 79.4101 28.75 79.3301 28.75Z" fill="white"/>
<path d="M71.3801 19.8C72.5501 20.87 74.06 21.41 75.61 21.41C77.16 21.41 78.7001 20.89 80.0101 19.85L80.04 19.89C77.73 22.35 77.4601 26.01 79.3901 28.49L79.35 28.53C78.18 27.46 76.6701 26.92 75.1301 26.92C73.5901 26.92 72.04 27.44 70.73 28.48L70.7001 28.44C73.0101 25.98 73.28 22.32 71.35 19.84L71.3901 19.8M71.3801 19.3C71.2601 19.3 71.14 19.34 71.04 19.43L71.0001 19.47C70.8101 19.65 70.7801 19.94 70.9401 20.14C72.7301 22.45 72.4701 25.79 70.3201 28.09C70.1401 28.28 70.1401 28.58 70.3201 28.77L70.35 28.81C70.45 28.92 70.58 28.97 70.72 28.97C70.83 28.97 70.9401 28.93 71.0301 28.86C72.2101 27.92 73.66 27.41 75.12 27.41C76.58 27.41 77.9701 27.93 79.0101 28.88C79.1101 28.97 79.23 29.01 79.35 29.01C79.47 29.01 79.5901 28.97 79.6901 28.88L79.73 28.84C79.92 28.66 79.95 28.37 79.79 28.17C78 25.86 78.26 22.52 80.41 20.22C80.59 20.03 80.59 19.73 80.41 19.54L80.3801 19.5C80.2801 19.39 80.1501 19.34 80.0101 19.34C79.9001 19.34 79.7901 19.38 79.7001 19.45C78.5201 20.39 77.07 20.9 75.61 20.9C74.15 20.9 72.76 20.38 71.72 19.43C71.62 19.34 71.5001 19.3 71.3801 19.3Z" fill="white"/>
<path d="M14.72 26.29C14.72 27.21 14.73 28.41 14.76 29.87C14.78 31.33 14.87 32.88 15.01 34.51C15.16 36.14 15.4 37.77 15.74 39.4C16.08 41.03 16.57 42.5 17.2 43.82C17.83 45.13 18.63 46.2 19.61 47.03C20.58 47.86 21.8 48.27 23.26 48.27C24.62 48.27 25.69 47.95 26.47 47.32C27.25 46.69 27.91 45.89 28.44 44.91C28.97 43.94 29.46 42.9 29.9 41.81C30.34 40.72 30.89 39.68 31.54 38.71C32.2 37.74 33.02 36.93 34.02 36.3C35.02 35.67 36.37 35.35 38.07 35.35C39.38 35.35 40.53 35.6 41.5 36.12C42.47 36.63 43.26 37.3 43.87 38.13C44.48 38.96 44.93 39.91 45.22 40.98C45.51 42.05 45.66 43.17 45.66 44.34C45.66 46.92 44.81 48.82 43.11 50.03C41.41 51.25 38.66 51.86 34.86 51.86H4.78003C1.76003 51.86 0.25 50.11 0.25 46.6C0.25 44.95 0.429988 43.31 0.799988 41.71C1.16999 40.1 1.57 38.47 2 36.82C2.44 35.17 2.84002 33.47 3.21002 31.75C3.58002 30.03 3.76001 28.21 3.76001 26.31C3.76001 24.41 3.58002 22.6 3.21002 20.87C2.84002 19.14 2.44 17.45 2 15.8C1.56 14.15 1.15999 12.51 0.799988 10.91C0.429988 9.3 0.25 7.7 0.25 6.09C0.25 2.54 1.76003 0.76001 4.78003 0.76001H13.61C15.22 0.76001 16.37 1.20001 17.08 2.07001C17.78 2.95001 18.14 4.27999 18.14 6.07999C18.14 7.68999 17.96 9.28999 17.59 10.9C17.22 12.51 16.84 14.14 16.42 15.79C16.01 17.45 15.62 19.14 15.25 20.86C14.88 22.58 14.7 24.4 14.7 26.3L14.72 26.29Z" fill="white"/>
<path d="M106.19 26.29C106.19 24.39 105.97 22.58 105.53 20.85C105.09 19.12 104.61 17.43 104.07 15.78C103.53 14.13 103.05 12.49 102.61 10.89C102.17 9.28001 101.95 7.68001 101.95 6.07001C101.95 2.52001 103.46 0.73999 106.48 0.73999H115.31C116.92 0.73999 118.07 1.17999 118.78 2.04999C119.48 2.92999 119.84 4.26 119.84 6.06C119.84 7.67 120.03 9.14001 120.42 10.48C120.81 11.82 121.42 13.13 122.24 14.42C123.07 15.71 124.11 17.05 125.38 18.44C126.64 19.83 128.13 21.37 129.83 23.07C130.46 23.7 131.37 24.62 132.57 25.81C133.76 27 134.97 28.18 136.18 29.35C137.4 30.52 138.52 31.54 139.54 32.42C140.56 33.3 141.22 33.73 141.51 33.73C141.8 33.73 142.03 33.46 142.2 32.93C142.37 32.39 142.49 31.75 142.57 31C142.64 30.25 142.68 29.43 142.68 28.55V26.29C142.68 24.39 142.46 22.58 142.02 20.85C141.58 19.12 141.1 17.43 140.56 15.78C140.02 14.13 139.54 12.49 139.1 10.89C138.66 9.28001 138.44 7.68001 138.44 6.07001C138.44 2.52001 139.95 0.73999 142.97 0.73999H145.96C147.57 0.73999 148.72 1.17999 149.43 2.04999C150.14 2.91999 150.49 4.26 150.49 6.06C150.49 7.67 150.27 9.27 149.83 10.88C149.39 12.49 148.92 14.12 148.41 15.77C147.9 17.43 147.42 19.12 146.99 20.84C146.55 22.57 146.33 24.38 146.33 26.28C146.33 28.18 146.55 29.99 146.99 31.72C147.43 33.45 147.9 35.14 148.41 36.79C148.92 38.45 149.4 40.08 149.83 41.68C150.27 43.29 150.49 44.92 150.49 46.57C150.49 48.32 150.14 49.64 149.43 50.51C148.72 51.38 147.57 51.82 145.96 51.82H137.13C134.11 51.82 132.6 50.07 132.6 46.56C132.6 44.91 132.15 43.25 131.25 41.6C130.35 39.95 129.27 38.36 128 36.86C126.73 35.35 125.43 33.96 124.09 32.7C122.75 31.43 121.67 30.39 120.84 29.56C119.87 28.59 118.86 27.57 117.81 26.49C116.76 25.42 115.77 24.45 114.82 23.57C113.87 22.69 113.03 21.96 112.3 21.38C111.57 20.8 111.06 20.5 110.77 20.5C110.48 20.5 110.26 20.71 110.11 21.12C109.96 21.53 109.87 22.04 109.82 22.65C109.77 23.26 109.76 23.89 109.78 24.55C109.8 25.21 109.82 25.78 109.82 26.27C109.82 28.17 110.04 29.98 110.48 31.71C110.92 33.44 111.39 35.13 111.9 36.78C112.41 38.44 112.89 40.07 113.32 41.67C113.76 43.28 113.98 44.91 113.98 46.56C113.98 48.31 113.63 49.63 112.92 50.5C112.21 51.37 111.06 51.81 109.45 51.81H106.46C103.44 51.81 101.93 50.06 101.93 46.55C101.93 44.9 102.15 43.26 102.59 41.66C103.03 40.05 103.51 38.42 104.05 36.77C104.59 35.12 105.07 33.42 105.51 31.7C105.95 29.97 106.17 28.16 106.17 26.26L106.19 26.29Z" fill="white"/>
<path d="M186.19 46.58C186.19 46.04 186.25 45.46 186.37 44.83C186.49 44.2 186.6 43.53 186.7 42.82C186.8 42.11 186.83 41.4 186.81 40.67C186.78 39.94 186.63 39.19 186.34 38.41C186.05 37.68 185.54 37.11 184.81 36.7C184.08 36.29 183.23 35.98 182.26 35.79C181.29 35.6 180.24 35.49 179.12 35.46C178 35.44 176.93 35.42 175.91 35.42C174.74 35.42 173.61 35.44 172.52 35.49C171.42 35.54 170.44 35.66 169.56 35.86C168.68 36.06 167.95 36.35 167.37 36.74C166.79 37.13 166.42 37.66 166.27 38.35C166.17 39.08 166.2 39.82 166.34 40.58C166.49 41.33 166.68 42.08 166.92 42.81C167.16 43.54 167.39 44.22 167.61 44.85C167.83 45.48 167.94 46.07 167.94 46.6C167.94 48.35 167.53 49.67 166.7 50.54C165.87 51.42 164.32 51.85 162.03 51.85H159.55C157.94 51.85 156.79 51.44 156.08 50.61C155.37 49.78 155.02 48.64 155.02 47.18C155.02 45.38 155.4 43.57 156.15 41.74C156.9 39.91 157.82 38.09 158.89 36.26C159.96 34.43 161.09 32.61 162.28 30.79C163.47 28.97 164.51 27.15 165.38 25.35C166.89 22.28 168.23 19.41 169.4 16.74C170.57 14.06 171.15 11.56 171.15 9.22C171.15 7.66 171 6.53999 170.71 5.85999C170.42 5.17999 170.27 4.59999 170.27 4.10999C170.27 3.27999 170.63 2.52 171.36 1.81C172.09 1.1 173.23 0.75 174.79 0.75H181.87C183.14 0.75 184.16 0.859987 184.94 1.07999C185.72 1.29999 186.36 1.64001 186.87 2.10001C187.38 2.56001 187.77 3.12 188.04 3.78C188.31 4.44 188.54 5.19999 188.73 6.07999C189.56 9.53999 190.54 12.8 191.69 15.86C192.84 18.92 194.18 22.09 195.74 25.35C196.62 27.15 197.58 28.96 198.62 30.79C199.67 32.62 200.64 34.44 201.54 36.26C202.44 38.09 203.19 39.91 203.8 41.74C204.41 43.56 204.71 45.38 204.71 47.18C204.71 48.64 204.34 49.78 203.61 50.61C202.88 51.44 201.74 51.85 200.18 51.85H192.15C189.81 51.85 188.23 51.41 187.4 50.54C186.57 49.66 186.16 48.35 186.16 46.6L186.19 46.58ZM167.58 29.72C167.43 30.21 167.62 30.58 168.13 30.85C168.64 31.12 169.32 31.32 170.17 31.47C171.02 31.62 171.97 31.7 173.02 31.73C174.07 31.75 175.03 31.77 175.9 31.77C176.77 31.77 177.78 31.76 178.93 31.73C180.07 31.71 181.13 31.62 182.11 31.47C183.08 31.32 183.87 31.08 184.48 30.74C185.09 30.4 185.32 29.89 185.17 29.21C184.93 28.09 184.39 26.68 183.56 24.98C182.73 23.28 181.83 21.62 180.86 20.02C179.89 18.41 178.96 17.03 178.09 15.86C177.22 14.69 176.63 14.11 176.34 14.11C176.05 14.11 175.51 14.68 174.73 15.83C173.95 16.97 173.11 18.36 172.21 19.99C171.31 21.62 170.42 23.32 169.54 25.1C168.66 26.88 168.01 28.42 167.57 29.74L167.58 29.72Z" fill="white"/>
<path d="M223.13 10.37C223.13 12.66 223.9 14.48 225.43 15.84C226.96 17.2 228.89 18.37 231.2 19.34C233.51 20.31 236 21.23 238.68 22.08C241.36 22.93 243.85 24.03 246.16 25.37C248.47 26.71 250.39 28.41 251.93 30.48C253.46 32.55 254.23 35.29 254.23 38.69C254.23 41.22 253.61 43.37 252.37 45.15C251.13 46.93 249.46 48.36 247.37 49.46C245.28 50.56 242.9 51.35 240.25 51.83C237.6 52.32 234.83 52.56 231.96 52.56C228.46 52.56 225.32 52.38 222.54 52.01C219.77 51.64 217.42 51.05 215.5 50.22C213.58 49.39 212.11 48.26 211.08 46.83C210.06 45.4 209.55 43.63 209.55 41.54C209.55 40.23 209.78 39.11 210.24 38.18C210.7 37.26 211.31 36.49 212.07 35.88C212.82 35.27 213.65 34.83 214.55 34.57C215.45 34.3 216.34 34.17 217.22 34.17C219.75 34.17 221.81 34.74 223.39 35.88C224.97 37.02 225.91 38.91 226.2 41.54C226.39 43.19 226.64 44.51 226.93 45.48C227.22 46.45 227.59 47.2 228.02 47.71C228.46 48.22 229.01 48.55 229.66 48.7C230.32 48.85 231.08 48.92 231.96 48.92C233.32 48.92 234.43 48.66 235.28 48.15C236.13 47.64 236.79 47.03 237.25 46.32C237.71 45.61 238.03 44.87 238.2 44.09C238.37 43.31 238.45 42.68 238.45 42.19C238.45 39.76 237.68 37.85 236.15 36.46C234.62 35.07 232.69 33.89 230.38 32.92C228.07 31.95 225.57 31.05 222.9 30.22C220.22 29.39 217.73 28.35 215.42 27.08C213.11 25.82 211.19 24.15 209.65 22.08C208.12 20.01 207.35 17.28 207.35 13.87C207.35 11.34 207.97 9.19 209.21 7.41C210.45 5.63 212.12 4.20001 214.21 3.10001C216.3 2.01001 218.69 1.21001 221.36 0.730011C224.04 0.240011 226.79 0 229.61 0C233.11 0 236.25 0.17001 239.03 0.51001C241.8 0.85001 244.15 1.44999 246.07 2.29999C247.99 3.14999 249.46 4.28 250.49 5.69C251.51 7.1 252.02 8.87999 252.02 11.02C252.02 12.33 251.79 13.45 251.33 14.38C250.87 15.3 250.26 16.07 249.5 16.68C248.75 17.29 247.92 17.73 247.02 17.99C246.12 18.26 245.23 18.39 244.35 18.39C241.82 18.39 239.76 17.81 238.18 16.64C236.6 15.47 235.66 13.6 235.37 11.02C235.17 9.31999 234.93 7.98001 234.64 7.01001C234.35 6.04001 233.98 5.31001 233.55 4.82001C233.11 4.33001 232.56 4.02 231.91 3.87C231.25 3.72 230.49 3.64999 229.61 3.64999C228.25 3.64999 227.15 3.91001 226.33 4.42001C225.5 4.93001 224.84 5.54 224.36 6.25C223.87 6.96 223.54 7.69 223.37 8.44C223.2 9.19 223.12 9.84 223.12 10.37H223.13Z" fill="white"/>
<path d="M270.95 0.73999H300.37C305.24 0.73999 308.74 1.63 310.88 3.41C313.02 5.19 314.09 7.56 314.09 10.53C314.09 11.45 313.91 12.4 313.54 13.38C313.18 14.35 312.64 15.24 311.93 16.05C311.22 16.85 310.35 17.5 309.3 17.98C308.25 18.47 307.07 18.71 305.76 18.71C303.81 18.71 302.33 18.36 301.31 17.65C300.29 16.95 299.55 16.06 299.08 14.99C298.62 13.92 298.34 12.78 298.24 11.56C298.14 10.34 298.06 9.2 297.98 8.13C297.91 7.06 297.75 6.17 297.51 5.47C297.27 4.76 296.78 4.41 296.05 4.41C295.17 4.41 294.42 5.02999 293.79 6.26999C293.16 7.50999 292.65 9.04 292.26 10.87C291.87 12.69 291.59 14.68 291.42 16.82C291.25 18.96 291.16 20.91 291.16 22.66C291.16 24.9 291.34 27.1 291.71 29.27C292.07 31.44 292.46 33.53 292.88 35.55C293.29 37.57 293.68 39.5 294.05 41.35C294.41 43.2 294.6 44.95 294.6 46.61C294.6 48.36 294.25 49.68 293.54 50.55C292.83 51.43 291.68 51.86 290.07 51.86H281.24C278.22 51.86 276.71 50.11 276.71 46.6C276.71 44.95 276.89 43.19 277.26 41.34C277.63 39.49 278.03 37.56 278.46 35.54C278.9 33.52 279.3 31.43 279.67 29.26C280.03 27.09 280.22 24.89 280.22 22.65C280.22 20.9 280.14 18.95 279.97 16.81C279.8 14.67 279.52 12.69 279.13 10.86C278.74 9.02999 278.23 7.50001 277.6 6.26001C276.97 5.02001 276.19 4.39999 275.26 4.39999C274.53 4.39999 274.04 4.74999 273.8 5.45999C273.56 6.16999 273.41 7.05 273.36 8.12C273.31 9.19 273.24 10.34 273.14 11.55C273.04 12.77 272.76 13.91 272.3 14.98C271.84 16.05 271.09 16.94 270.07 17.64C269.05 18.35 267.56 18.7 265.62 18.7C264.31 18.7 263.12 18.46 262.08 17.97C261.03 17.48 260.16 16.84 259.45 16.04C258.74 15.24 258.21 14.35 257.84 13.37C257.47 12.4 257.29 11.45 257.29 10.52C257.29 7.54999 258.36 5.17999 260.5 3.39999C262.64 1.61999 266.12 0.730011 270.94 0.730011L270.95 0.73999Z" fill="white"/>
<path d="M334.09 34.75C334.09 35.53 334.25 36.44 334.56 37.49C334.88 38.54 335.22 39.61 335.58 40.7C335.94 41.79 336.29 42.87 336.6 43.91C336.92 44.96 337.07 45.89 337.07 46.72C337.07 48.42 336.72 49.7 336.01 50.55C335.3 51.4 334.15 51.83 332.54 51.83H323.71C320.69 51.83 319.18 50.08 319.18 46.57C319.18 44.92 319.36 43.28 319.73 41.68C320.1 40.07 320.5 38.44 320.93 36.79C321.37 35.14 321.77 33.44 322.14 31.72C322.51 30 322.69 28.18 322.69 26.28C322.69 24.38 322.51 22.57 322.14 20.84C321.77 19.11 321.37 17.42 320.93 15.77C320.49 14.12 320.09 12.48 319.73 10.88C319.36 9.27 319.18 7.67 319.18 6.06C319.18 2.51 320.69 0.730011 323.71 0.730011H341.81C345.56 0.730011 348.94 0.969991 351.96 1.45999C354.98 1.94999 357.54 2.79001 359.66 3.98001C361.78 5.17001 363.42 6.77999 364.59 8.79999C365.76 10.82 366.34 13.36 366.34 16.43C366.34 18.47 366.07 20.24 365.54 21.72C365 23.2 364.35 24.46 363.57 25.48C362.79 26.5 361.93 27.33 360.98 27.96C360.03 28.59 359.17 29.1 358.39 29.49C357.61 29.88 356.95 30.18 356.42 30.4C355.88 30.62 355.62 30.83 355.62 31.02C355.62 31.21 355.89 31.59 356.42 32.15C356.96 32.71 357.61 33.4 358.39 34.23C359.17 35.06 360.03 35.98 360.98 37C361.93 38.02 362.79 39.08 363.57 40.18C364.35 41.27 365 42.37 365.54 43.47C366.08 44.56 366.34 45.6 366.34 46.57C366.34 48.32 365.99 49.64 365.28 50.51C364.57 51.39 363.42 51.82 361.81 51.82H352.98C349.96 51.82 348.45 50.07 348.45 46.56C348.45 44.52 348.28 42.64 347.94 40.94C347.6 39.24 347.06 37.76 346.33 36.52C345.6 35.28 344.69 34.32 343.59 33.64C342.49 32.96 341.19 32.62 339.68 32.62H337.49C336.81 32.62 336.21 32.68 335.7 32.8C335.19 32.92 334.79 33.13 334.49 33.42C334.19 33.71 334.05 34.15 334.05 34.73L334.09 34.75ZM341.68 4.39001C340.27 4.39001 339.1 4.78 338.18 5.56C337.26 6.34 336.49 7.37 335.88 8.66C335.27 9.95 334.82 11.4 334.53 13C334.24 14.61 334.02 16.21 333.87 17.82C333.72 19.43 333.65 20.98 333.65 22.49V26.29C333.65 26.87 333.84 27.35 334.23 27.71C334.62 28.07 335.12 28.34 335.73 28.51C336.34 28.68 336.99 28.8 337.7 28.88C338.41 28.95 339.07 28.99 339.71 28.99C340.93 28.99 342.18 28.87 343.47 28.63C344.76 28.39 345.94 27.83 347.01 26.95C348.08 26.07 348.96 24.81 349.64 23.15C350.32 21.5 350.66 19.26 350.66 16.43C350.66 13.8 350.36 11.68 349.75 10.08C349.14 8.46999 348.37 7.25999 347.45 6.42999C346.53 5.59999 345.55 5.06001 344.53 4.79001C343.51 4.52001 342.56 4.39001 341.68 4.39001Z" fill="white"/>
<path d="M402.05 46.58C402.05 46.04 402.11 45.46 402.23 44.83C402.35 44.2 402.46 43.53 402.56 42.82C402.66 42.11 402.69 41.4 402.67 40.67C402.64 39.94 402.49 39.19 402.2 38.41C401.91 37.68 401.4 37.11 400.67 36.7C399.94 36.29 399.09 35.98 398.12 35.79C397.15 35.6 396.1 35.49 394.98 35.46C393.86 35.44 392.79 35.42 391.77 35.42C390.6 35.42 389.47 35.44 388.38 35.49C387.28 35.54 386.3 35.66 385.42 35.86C384.54 36.06 383.81 36.35 383.23 36.74C382.65 37.13 382.28 37.66 382.13 38.35C382.03 39.08 382.06 39.82 382.2 40.58C382.35 41.33 382.54 42.08 382.78 42.81C383.02 43.54 383.25 44.22 383.47 44.85C383.69 45.48 383.8 46.07 383.8 46.6C383.8 48.35 383.39 49.67 382.56 50.54C381.73 51.42 380.18 51.85 377.89 51.85H375.41C373.8 51.85 372.65 51.44 371.94 50.61C371.23 49.78 370.88 48.64 370.88 47.18C370.88 45.38 371.26 43.57 372.01 41.74C372.76 39.91 373.68 38.09 374.75 36.26C375.82 34.43 376.95 32.61 378.14 30.79C379.33 28.97 380.37 27.15 381.24 25.35C382.75 22.28 384.09 19.41 385.26 16.74C386.43 14.06 387.01 11.56 387.01 9.22C387.01 7.66 386.86 6.53999 386.57 5.85999C386.28 5.17999 386.13 4.59999 386.13 4.10999C386.13 3.27999 386.49 2.52 387.22 1.81C387.95 1.1 389.09 0.75 390.65 0.75H397.73C399 0.75 400.02 0.859987 400.8 1.07999C401.58 1.29999 402.22 1.64001 402.73 2.10001C403.24 2.56001 403.63 3.12 403.9 3.78C404.17 4.44 404.4 5.19999 404.59 6.07999C405.42 9.53999 406.4 12.8 407.55 15.86C408.7 18.92 410.04 22.09 411.6 25.35C412.48 27.15 413.44 28.96 414.48 30.79C415.53 32.62 416.5 34.44 417.4 36.26C418.3 38.09 419.05 39.91 419.66 41.74C420.27 43.56 420.57 45.38 420.57 47.18C420.57 48.64 420.2 49.78 419.47 50.61C418.74 51.44 417.6 51.85 416.04 51.85H408.01C405.67 51.85 404.09 51.41 403.26 50.54C402.43 49.66 402.02 48.35 402.02 46.6L402.05 46.58ZM383.44 29.72C383.29 30.21 383.48 30.58 383.99 30.85C384.5 31.12 385.18 31.32 386.03 31.47C386.88 31.62 387.83 31.7 388.88 31.73C389.93 31.75 390.89 31.77 391.76 31.77C392.63 31.77 393.64 31.76 394.79 31.73C395.93 31.71 396.99 31.62 397.97 31.47C398.94 31.32 399.73 31.08 400.34 30.74C400.95 30.4 401.18 29.89 401.03 29.21C400.79 28.09 400.25 26.68 399.42 24.98C398.59 23.28 397.69 21.62 396.72 20.02C395.75 18.41 394.82 17.03 393.95 15.86C393.08 14.69 392.49 14.11 392.2 14.11C391.91 14.11 391.37 14.68 390.59 15.83C389.81 16.97 388.97 18.36 388.07 19.99C387.17 21.62 386.28 23.32 385.4 25.1C384.52 26.88 383.87 28.42 383.43 29.74L383.44 29.72Z" fill="white"/>
<path d="M74.1301 48.41C70.2401 48.41 67.0401 47.43 65.0301 46.61C63.2601 45.89 59.1201 44.19 56.0001 40.02C52.7801 35.71 52.33 31.17 51.93 27.16C51.72 25.05 51.4401 22.26 52.0901 18.92C53.3501 12.42 57.15 7.84999 60.11 5.14999C60.2 5.05999 60.3201 5.01999 60.4501 5.01999C60.5401 5.01999 60.64 5.05001 60.72 5.10001C60.91 5.22001 60.99 5.45999 60.92 5.67999C59.22 10.85 58.6801 16.14 59.3301 21.39C59.9701 26.6 60.7801 33.09 65.9401 36.85C68.3801 38.62 71.4501 39.52 75.0701 39.52C77.3101 39.52 79.2401 39.19 80.5201 38.96C82.1901 38.67 86.56 37.66 91.05 34.49C92.16 33.71 93.21 32.84 94.18 31.91C94.28 31.82 94.4001 31.77 94.5301 31.77C94.6201 31.77 94.7001 31.79 94.7801 31.84C94.9701 31.95 95.0701 32.18 95.0101 32.4C94.3001 35.18 92.6801 39.22 88.9601 42.68C87.6901 43.86 84.9601 46.04 80.8801 47.35C78.7001 48.05 76.42 48.4 74.11 48.4L74.1301 48.41Z" fill="white"/>
<path d="M60.4501 5.53C59.3901 8.76 57.9801 14.47 58.8401 21.46C59.4901 26.69 60.3101 33.38 65.6501 37.26C68.6601 39.45 72.11 40.03 75.07 40.03C77.35 40.03 79.34 39.69 80.61 39.47C81.57 39.3 86.3801 38.41 91.3401 34.92C92.7201 33.95 93.7801 33.01 94.5301 32.29C94.0401 34.2 92.65 38.58 88.63 42.33C87.91 43 85.16 45.47 80.74 46.89C78.39 47.64 76.15 47.92 74.12 47.92C69.9 47.92 66.5901 46.73 65.2101 46.16C63.2501 45.36 59.3701 43.71 56.3901 39.73C53.2501 35.53 52.8 31 52.41 27.12C52.2 25.03 51.93 22.33 52.57 19.03C53.92 12.06 58.27 7.51001 60.44 5.54001M60.4501 4.53C60.2101 4.53 59.9701 4.62001 59.7801 4.79001C56.7601 7.53001 52.89 12.2 51.6 18.83C50.94 22.24 51.22 25.08 51.43 27.15V27.2C51.82 31.07 52.3 35.9 55.61 40.31C58.82 44.6 63.05 46.33 64.86 47.07C66.9 47.91 70.1701 48.9 74.1501 48.9C76.5201 48.9 78.8501 48.54 81.0801 47.82C85.2501 46.48 88.05 44.25 89.35 43.04C93.12 39.52 94.7901 35.42 95.5201 32.58C95.5501 32.48 95.57 32.37 95.57 32.26C95.57 31.71 95.13 31.26 94.57 31.26C94.56 31.26 94.55 31.26 94.54 31.26C94.28 31.26 94.05 31.37 93.88 31.54C92.92 32.46 91.89 33.31 90.81 34.08C86.39 37.19 82.11 38.18 80.48 38.47C79.22 38.69 77.3 39.02 75.11 39.02C71.6 39.02 68.6301 38.15 66.2701 36.44C61.2801 32.81 60.49 26.44 59.86 21.32C59.22 16.14 59.75 10.92 61.43 5.82001C61.57 5.39001 61.4101 4.92001 61.0201 4.67001C60.8501 4.56001 60.66 4.51001 60.48 4.51001L60.4501 4.53Z" fill="white"/>
</svg>
